<svg id="Favicon" xmlns="http://www.w3.org/2000/svg" xmlns:xlink="http://www.w3.org/1999/xlink" viewBox="0 0 500 500"><defs><style>.cls-1{fill:none;}.cls-2{clip-path:url(#clip-path);}.cls-3{fill:#fff;}</style><clipPath id="clip-path"><circle class="cls-1" cx="250" cy="250" r="250"/></clipPath></defs><g class="cls-2"><rect width="500" height="500"/><path class="cls-3" d="M187.05,139a6.88,6.88,0,1,0,6.87,6.87,6.88,6.88,0,0,0-6.87-6.87Z"/><path class="cls-3" d="M499.76,491a505.06,505.06,0,0,0-56.51-135.77C438,346,433,337.31,428.53,328.44c-5-10-13.85-25.27-22.41-39.94-6.08-10.49-11.86-20.39-15.3-26.85-17.05-32-34-69.26-35.27-72.19C332.28,128.52,301,88.65,262.4,71c-31.49-14.44-93-16.19-134.41,4.19-21.59,10.62-35.44,26.3-40.22,45.34C36.31,182.28,72.06,233.5,72.44,234A6.83,6.83,0,0,0,78,236.87a8.11,8.11,0,0,0,1.2-.11,6.85,6.85,0,0,0,5.43-4.88A42.75,42.75,0,0,1,95.3,212.43c2.37,9.62,9.07,22.92,27.6,32.82-1.06,3.92-2.2,7.91-3.5,12-1.79,5.43-43.21,134.57,1.51,238.28a6.86,6.86,0,0,0,6.32,4.16,16.65,16.65,0,0,0,3.3.27,6.84,6.84,0,0,0,5.92-7.65v0c-.69-5.46-16.09-134.74,91.88-166.33C292.89,307,351.15,343,384.19,383c23.89,28.9,42.11,66.54,54.14,111.92A6.89,6.89,0,0,0,445,500a6.72,6.72,0,0,0,1.79-.24l48.16-.34a6.86,6.86,0,0,0,4.85-8.41ZM126.34,231.26c-14.54-9.07-17.74-20.31-18.36-26a44.36,44.36,0,0,1,22,.66A183.83,183.83,0,0,1,126.34,231.26Zm-30-36.33a43.9,43.9,0,0,0-18.94,18.39C71.75,197.13,68,167,96.6,131.41a52.85,52.85,0,0,1,24.62,23.27,82.41,82.41,0,0,1,9.11,37.16A52.45,52.45,0,0,0,96.36,194.93Zm90.69-28.46a20.61,20.61,0,1,1,20.62-20.63A20.61,20.61,0,0,1,187.05,166.47Z"/></g></svg>