<svg xmlns="http://www.w3.org/2000/svg" viewBox="0 0 400 400"><path d="M114.9,185.63c.45,4.15,2.77,12.33,13.35,18.93a133.57,133.57,0,0,0,2.67-18.45A32.21,32.21,0,0,0,114.9,185.63Z"/><path d="M123.2,223.43c1-3,1.77-5.85,2.55-8.7-13.48-7.2-18.35-16.87-20.08-23.87A31.06,31.06,0,0,0,97.92,205a5,5,0,0,1-4,3.55,6.38,6.38,0,0,1-.87.07,5,5,0,0,1-4-2.07c-.28-.38-26.28-37.63,11.15-82.55,3.47-13.85,13.55-25.25,29.25-33,30.1-14.82,74.85-13.55,97.75-3C255.25,100.83,278,129.83,295,174.16c.95,2.12,13.25,29.25,25.65,52.49,2.5,4.7,6.7,11.9,11.12,19.53,6.23,10.67,12.65,21.75,16.3,29.05,3.25,6.45,6.88,12.77,10.7,19.47q4.45,7.41,8.52,15A199.08,199.08,0,0,0,400,200C400,89.54,310.46,0,200,0S0,89.54,0,200A200,200,0,0,0,119.1,383C95.29,310.34,122,227.14,123.2,223.43Z"/><path d="M172.42,127.46a15,15,0,1,0,15,15A15,15,0,0,0,172.42,127.46Zm0,20a5,5,0,0,1,0-10h0a5,5,0,1,1,0,10Z"/><path d="M315.77,314.88c-24-29.08-66.4-55.25-113.35-41.5-69,20.2-68.72,95.29-67.3,115.85a200.21,200.21,0,0,0,201.2-42.9A175.78,175.78,0,0,0,315.77,314.88Z"/><path d="M106.62,131.93c-20.8,25.88-18.07,47.8-14,59.58a31.9,31.9,0,0,1,13.78-13.38,38.16,38.16,0,0,1,24.7-2.25,59.92,59.92,0,0,0-6.63-27A38.5,38.5,0,0,0,106.62,131.93Z"/></svg>
