<svg xmlns="http://www.w3.org/2000/svg" width="94" height="40" fill="white" viewBox="0 0 468.04 200"><path d="M433.2,84.36c-.2,4.94-.3,8.8-.3,11.56A95.66,95.66,0,0,0,434,112.6q1.11,6,3.7,8.6a9.73,9.73,0,0,0,7.19,2.6,14.1,14.1,0,0,0,5.64-1.49,23.42,23.42,0,0,0,5.93-3.85,4.87,4.87,0,0,1,3.26-1.49,3.29,3.29,0,0,1,2.89,2,9.78,9.78,0,0,1,1.11,4.82,14.16,14.16,0,0,1-1.11,5.48,11,11,0,0,1-3.34,4.45,26.7,26.7,0,0,1-17.49,6.37q-14.08,0-20.61-11.78t-6.52-30.77q0-6.51.44-13.19h-5.78c-3,0-5-.54-6-1.63s-1.56-2.82-1.56-5.19q0-8.3,6.67-8.3h8.45a144.19,144.19,0,0,1,7.71-29.8q5.19-13.5,12.53-21.5t15.79-8a11.08,11.08,0,0,1,9.78,5.49q3.57,5.49,3.56,13.79,0,23-19.27,40h16.6a4.66,4.66,0,0,1,3.41,1c.69.69,1,2,1,3.85q0,10.23-16.75,10.23ZM444,29.73a78.63,78.63,0,0,0-5.19,15.42A207.56,207.56,0,0,0,434.68,67,50.52,50.52,0,0,0,447.8,50q4.38-9.42,4.38-17.13,0-8.74-3.27-8.74Q446.69,24.17,444,29.73Z"/><path d="M419.64,108.08a9.22,9.22,0,0,1,1.11,4.89q0,5.94-2.82,9.19-5.49,6.68-15.49,12.31A42.94,42.94,0,0,1,381,140.1q-15.57,0-24.17-8.45t-8.6-23.12a42.92,42.92,0,0,1,4.3-19.06,35.22,35.22,0,0,1,11.93-14,30.09,30.09,0,0,1,17.28-5.18q8.6,0,13.78,5.11t5.19,13.86a23.94,23.94,0,0,1-7.34,17.57q-7.33,7.34-24.83,11.64,3.7,6.83,14.09,6.82,6.66,0,15.19-4.67a50.19,50.19,0,0,0,14.75-12.23,5.2,5.2,0,0,1,4-2.08A3.42,3.42,0,0,1,419.64,108.08ZM370,91.18a29.72,29.72,0,0,0-3.78,15.42v.29q8.74-2.07,13.79-6.22T385,91a6.44,6.44,0,0,0-1.56-4.52,5.42,5.42,0,0,0-4.22-1.71Q373.75,84.8,370,91.18Z"/><path d="M361.37,108.08a9.22,9.22,0,0,1,1.11,4.89q0,5.94-2.81,9.19-5.49,6.68-15.5,12.31a42.92,42.92,0,0,1-21.42,5.63q-15.57,0-24.17-8.45T290,108.53a42.92,42.92,0,0,1,4.3-19.06,35.22,35.22,0,0,1,11.93-14,30.08,30.08,0,0,1,17.27-5.18q8.6,0,13.79,5.11t5.19,13.86a24,24,0,0,1-7.34,17.57q-7.33,7.34-24.83,11.64,3.7,6.83,14.08,6.82,6.67,0,15.2-4.67a50.32,50.32,0,0,0,14.75-12.23,5.19,5.19,0,0,1,4-2.08A3.41,3.41,0,0,1,361.37,108.08Zm-49.66-16.9a29.72,29.72,0,0,0-3.79,15.42v.29q8.76-2.07,13.79-6.22t5-9.64a6.48,6.48,0,0,0-1.55-4.52A5.44,5.44,0,0,0,321,84.8Q315.48,84.8,311.71,91.18Z"/><path d="M304.66,115.49c0,3.86-.86,6.87-2.59,9.05a8.53,8.53,0,0,1-7,3.26l-5.49-.15c-1-.1-2.42-.15-4.3-.15q.6,8.46.59,16.9,0,22.4-5.85,39T261.67,200q-8.44,0-12.83-9.71t-4.37-23.65a153,153,0,0,1,3.86-34.25q-5.06,7.71-13.2,7.71t-13.57-6.82q-5.4-6.81-5.41-17.64a48.48,48.48,0,0,1,20.39-39.21A34,34,0,0,1,256.33,70a6.68,6.68,0,0,1,5.49,2.37q1.33-4.74,4-6.38a14.29,14.29,0,0,1,7.41-1.63q5,0,6.75,1.49a5.06,5.06,0,0,1,1.56,4.3c0,1.18-.62,3.93-1.86,8.22s-2.05,7.15-2.44,8.53q-2.39,8.31-5.12,18.38t-4.37,18.39q-4.75,23.72-4.75,42a52.54,52.54,0,0,0,1.11,11.63c.75,3.21,1.71,4.82,2.9,4.82,1,0,2.05-1.68,3.18-5a76.68,76.68,0,0,0,2.89-13.49,129.28,129.28,0,0,0,1.19-17.94,171.89,171.89,0,0,0-1-20,13.41,13.41,0,0,1-.15-2.38,13.2,13.2,0,0,1,2.45-8.15,8.12,8.12,0,0,1,6.89-3.26q.6,0,11.27-.45,4.46-.44,7.56-.44C303.53,110.9,304.66,112.43,304.66,115.49Zm-57.08,5.41A26.71,26.71,0,0,0,252,110.75l6.38-27a19.13,19.13,0,0,0-11.94,4.59,30.9,30.9,0,0,0-8.6,11.79,38.55,38.55,0,0,0-3.18,15.49c0,3.07.56,5.41,1.7,7a5.4,5.4,0,0,0,4.67,2.45C243.33,125.13,245.51,123.72,247.58,120.9Z"/><path d="M185.84,133.28q-4.38-6.81-4.38-18.08a110.46,110.46,0,0,1,1.71-17.13,158.36,158.36,0,0,1,4.37-19.49c.89-3.17,2.08-5.34,3.56-6.53s3.85-1.77,7.12-1.77q7.56,0,7.56,5,0,3.71-2.82,17.19-3.56,16.32-3.56,22.09a15.48,15.48,0,0,0,1.19,6.82,4.11,4.11,0,0,0,4,2.38q2.67,0,6.67-3.71a133.55,133.55,0,0,0,10.68-11.71,5.18,5.18,0,0,1,4-2.08,3.42,3.42,0,0,1,3,1.78,9.22,9.22,0,0,1,1.11,4.89q0,5.94-2.82,9.19-14.67,18-27.42,17.94Q190.21,140.1,185.84,133.28Zm5.85-75.68q-3.1-2.9-3.11-8.08a11,11,0,0,1,4.08-8.68,15.07,15.07,0,0,1,10.15-3.48,14,14,0,0,1,8.9,2.67,9.05,9.05,0,0,1,3.41,7.56A12.08,12.08,0,0,1,211.26,57q-3.85,3.48-10.23,3.48Q194.81,60.49,191.69,57.6Z"/><path d="M116.75,134.17q-2.3-5.92-2.3-19a120.62,120.62,0,0,1,5.49-36.62,11.1,11.1,0,0,1,4.37-6.3c2-1.34,4.87-2,8.53-2A8.33,8.33,0,0,1,137,71a3,3,0,0,1,1.18,2.81q0,2.37-2.22,10.68-1.48,5.92-2.37,10.38a105.23,105.23,0,0,0-1.49,11q4.91-12.75,11-20.76T155,73.68q5.85-3.41,10.75-3.4,9.63,0,9.64,9.63a74.69,74.69,0,0,1-1.34,9.34,54.65,54.65,0,0,0-1.18,7.41c0,3.47,1.23,5.19,3.7,5.19q4.16,0,10.68-6.52a5.67,5.67,0,0,1,4-1.93,3.46,3.46,0,0,1,3,1.71,8.18,8.18,0,0,1,1.11,4.52c0,3.66-1,6.52-3,8.6a40.21,40.21,0,0,1-9.72,7.34,24.24,24.24,0,0,1-11.78,3q-7.86,0-11.94-4t-4.07-10.82a22.45,22.45,0,0,1,.44-4.45c.2-2,.3-3.31.3-4,0-1.58-.55-2.37-1.63-2.37q-2.23,0-5.86,5A69.94,69.94,0,0,0,141,111.05a106.45,106.45,0,0,0-5.78,17.19q-1.64,7-3.78,9.42t-6.75,2.44Q119,140.1,116.75,134.17Z"/><path d="M125.87,95.78a10.24,10.24,0,0,1,1,4.89q0,7.11-4.3,8.45A67.84,67.84,0,0,1,103,112.68q-2.82,12.45-11.12,19.94a27.36,27.36,0,0,1-18.83,7.48,26.29,26.29,0,0,1-15.2-4.3,27.24,27.24,0,0,1-9.56-11.41A36.6,36.6,0,0,1,45.07,109a45.23,45.23,0,0,1,4.3-20.09A33.8,33.8,0,0,1,61.23,75.09a29.86,29.86,0,0,1,16.75-5q11.26,0,18.16,7.78a33.31,33.31,0,0,1,8.08,19.2,89.45,89.45,0,0,0,16.61-3,9.05,9.05,0,0,1,2.07-.29A3.23,3.23,0,0,1,125.87,95.78ZM82.5,120.53q3.48-3.86,4.67-11.12a20.44,20.44,0,0,1-7-8.15,24.14,24.14,0,0,1-2.44-10.67,25.45,25.45,0,0,1,.44-4.75h-.74q-5.92,0-9.86,5.71T63.6,107.64q0,8.14,3.19,12.45t7.49,4.3A10.71,10.71,0,0,0,82.5,120.53Z"/><path d="M58.19,108.08A9.22,9.22,0,0,1,59.3,113q0,5.94-2.81,9.19a63.65,63.65,0,0,1-13.87,12.9,29.69,29.69,0,0,1-17,5q-13,0-19.35-11.86T0,97.55Q0,79.47,4.67,56.34T18.46,16.6Q27.58,0,40.18,0q7.11,0,11.19,6.6t4.08,18.9q0,17.64-9.79,40.92a226.73,226.73,0,0,1-26.53,46.11q1,6.07,3.4,8.67a8.06,8.06,0,0,0,6.23,2.6,17.17,17.17,0,0,0,10.68-3.49q4.59-3.48,11.71-11.93a5.19,5.19,0,0,1,4-2.08A3.41,3.41,0,0,1,58.19,108.08ZM29.21,27a201.66,201.66,0,0,0-7.56,30.54,219.7,219.7,0,0,0-3.56,35A191.39,191.39,0,0,0,34.84,57.75Q41.07,40.32,41.07,26q0-11.26-4.15-11.27Q33.5,14.68,29.21,27Z"/></svg>
